<svg xmlns="http://www.w3.org/2000/svg" viewBox="0 0 64 64"><path fill="#fff" d="M7 11a4 4 0 0 0-4 4V51a4 4 0 0 0 4 4H22.32A10 10 0 0 1 30 58.6L32 61V11zM57 11a4 4 0 0 1 4 4V51a4 4 0 0 1-4 4H41.68A10 10 0 0 0 34 58.6L32 61V11z"/><path fill="#e6e6e6" d="M51,11v6a5,5,0,0,1-5,5H25.16l-5,3.57A2,2,0,0,1,17,23.94v-2A5,5,0,0,1,13,17V11Z"/><path fill="#ffa88a" d="M48,5V17a2,2,0,0,1-2,2H24.2L20,22V19H18a2,2,0,0,1-2-2V5a2,2,0,0,1,2-2H46A2,2,0,0,1,48,5Z"/><path fill="#fd9467" d="M39,7a16.92,16.92,0,0,1-5,12H24.2L20,22V19H18a2,2,0,0,1-2-2V5a2,2,0,0,1,2-2H38.53A17,17,0,0,1,39,7Z"/><path fill="#fff" d="M19.65 15.94a1 1 0 0 0 1.29-.59L23 9.85l2.06 5.5A1 1 0 0 0 26 16a1 1 0 0 0 .35-.06 1 1 0 0 0 .59-1.29l-3-8a1 1 0 0 0-1.88 0l-3 8A1 1 0 0 0 19.65 15.94zM30 16h4a3 3 0 0 0 3-3 3 3 0 0 0-.78-2A3 3 0 0 0 37 9a3 3 0 0 0-3-3H30a1 1 0 0 0-1 1v8A1 1 0 0 0 30 16zm4-2H31V12h3a1 1 0 0 1 0 2zM31 8h3a1 1 0 0 1 0 2H31zM40 16h4a1 1 0 0 0 0-2H41V8h3a1 1 0 0 0 0-2H40a1 1 0 0 0-1 1v8A1 1 0 0 0 40 16z"/><path fill="#4e5b5f" d="M41.68,56H57a5,5,0,0,0,5-5V15a5,5,0,0,0-5-5H49V5a3,3,0,0,0-3-3H18a3,3,0,0,0-3,3v5H7a5,5,0,0,0-5,5V51a5,5,0,0,0,5,5H22.32a9,9,0,0,1,6.91,3.24l.64.76H5a1,1,0,0,1-1-1V58a1,1,0,0,0-2,0v1a3,3,0,0,0,3,3H59a3,3,0,0,0,3-3V58a1,1,0,0,0-2,0v1a1,1,0,0,1-1,1H34.13l.64-.76A9,9,0,0,1,41.68,56ZM17,5a1,1,0,0,1,1-1H46a1,1,0,0,1,1,1V17a1,1,0,0,1-1,1H24a1,1,0,0,0-.6.2L21,20V19a1,1,0,0,0-1-1H18a1,1,0,0,1-1-1ZM31,58.24,30.77,58a11,11,0,0,0-8.45-4H7a3,3,0,0,1-3-3V15a3,3,0,0,1,3-3h8v5a3,3,0,0,0,3,3h1v2a1,1,0,0,0,.55.89A.91.91,0,0,0,20,23a1,1,0,0,0,.6-.2L24.33,20H31ZM33.23,58l-.23.28V20H46a3,3,0,0,0,3-3V12h8a3,3,0,0,1,3,3V51a3,3,0,0,1-3,3H41.68A11,11,0,0,0,33.23,58Z"/><path fill="#61c3b6" d="M9 20h3a1 1 0 0 0 0-2H9a1 1 0 0 0 0 2zM26 25H9a1 1 0 0 0 0 2H26a1 1 0 0 0 0-2zM26 32H9a1 1 0 0 0 0 2H26a1 1 0 0 0 0-2zM26 39H9a1 1 0 0 0 0 2H26a1 1 0 0 0 0-2zM26 46H9a1 1 0 0 0 0 2H26a1 1 0 0 0 0-2zM52 20h3a1 1 0 0 0 0-2H52a1 1 0 0 0 0 2zM55 25H38a1 1 0 0 0 0 2H55a1 1 0 0 0 0-2zM55 32H38a1 1 0 0 0 0 2H55a1 1 0 0 0 0-2zM55 39H38a1 1 0 0 0 0 2H55a1 1 0 0 0 0-2zM55 46H38a1 1 0 0 0 0 2H55a1 1 0 0 0 0-2z"/></svg>