<svg xmlns="http://www.w3.org/2000/svg" width="32" height="32" viewBox="0 0 32 32"><g transform="translate(432.87 -1461.362)"><path fill="#fff" style="isolation:auto;mix-blend-mode:normal" d="m -403.38114,1467.3623 0,2.5034 0,10.0365 0,5.2208 0,4.7393 -4.75,0 -3.2474,0 -8.73649,0 -2.26611,0 0,-26.9886 14.5,0 z" color="#000" overflow="visible"/><path fill="#00a5ff" d="m -404.86448,1465.8834 0,21.5547 c 0,0.554 -0.44599,1 -1,1 l -16.51758,0 0,1.4238 2.26758,0 8.73633,0 3.24609,0 4.75,0 0,-4.7382 0,-5.2208 0,-10.0371 0,-2.5039 -1.48242,-1.4785 z" color="#000" overflow="visible" style="isolation:auto;mix-blend-mode:normal"/><path fill="#00a5ff" fill-rule="evenodd" d="m -408.38114,1462.8622 0,5.0001 5.01147,0 z"/><path fill="#fff" fill-rule="evenodd" d="m -408.38114,1462.8623 0,1.4961 3.51172,3.5039 1.5,0 -5.01172,-5 z"/><path fill="none" stroke="#000" stroke-dashoffset="1.5" stroke-linecap="round" stroke-linejoin="round" d="m -403.38114,1481.9381 0,3.1849 0,4.7393 -4.75,0 -3.2474,0 -8.73649,0 -2.26611,0 0,-8.2471 0,-12.4943 0,-6.2472 14,0 5,4.9886 0,2.0034 0,2.5091 0,4.5092 m 0,2.5091 0,0.545" color="#000" overflow="visible" style="isolation:auto;mix-blend-mode:normal"/><path fill="none" stroke="#000" stroke-linecap="round" stroke-linejoin="round" d="m -408.38114,1462.8622 0,5.0001 5.01147,0 z"/><g transform="translate(-697.606 414.636) scale(.80001)"><circle style="isolation:auto;mix-blend-mode:normal" cx="355" cy="1325.362" r="7.5" fill="#01d1ff" color="#000" overflow="visible"/><path fill="#f4606e" style="isolation:auto;mix-blend-mode:normal" d="m 354.99997,1317.8623 a 7.4999604,7.4998641 0 0 1 6.49516,3.75 7.4999604,7.4998641 0 0 1 0,7.4998 l -6.49516,-3.7499 z" color="#000" overflow="visible"/><path fill="none" stroke="#000" stroke-linecap="round" stroke-linejoin="round" stroke-miterlimit="0" stroke-width="1.25" d="m 354.99997,1317.8623 a 7.4999604,7.4998641 0 0 1 6.49516,3.75 7.4999604,7.4998641 0 0 1 0,7.4998 l -6.49516,-3.7499 z" color="#000" overflow="visible" style="isolation:auto;mix-blend-mode:normal"/><path fill="#fff" style="isolation:auto;mix-blend-mode:normal" d="m 355,297.5 a 7.4999604,7.4998641 0 0 0 -7.5,7.5 7.4999604,7.4998641 0 0 0 7.5,7.5 7.4999604,7.4998641 0 0 0 0.71875,-0.043 A 7.4999604,7.4998641 0 0 1 349,305 7.4999604,7.4998641 0 0 1 355.78125,297.54297 7.4999604,7.4998641 0 0 0 355,297.5 Z" color="#000" overflow="visible" transform="translate(0 1020.362)"/><path fill="#00a5ff" style="isolation:auto;mix-blend-mode:normal" d="m 355,297.5 a 7.4999604,7.4998641 0 0 0 -1.49414,0.15234 l 0,7.34766 6.49414,3.75 a 7.4999604,7.4998641 0 0 1 -5.74805,3.70312 7.4999604,7.4998641 0 0 0 7.24414,-3.70312 L 355,305 l 0,-7.5 z" color="#000" overflow="visible" transform="translate(0 1020.362)"/><path fill="#f89963" style="isolation:auto;mix-blend-mode:normal" d="m 355,297.5 0,0.15234 a 7.4999604,7.4998641 0 0 1 4.99609,3.59766 7.4999604,7.4998641 0 0 1 0.33203,6.82617 l 1.16797,0.67383 a 7.4999604,7.4998641 0 0 0 0,-7.5 A 7.4999604,7.4998641 0 0 0 355,297.5 Z" color="#000" overflow="visible" transform="translate(0 1020.362)"/><path fill="none" stroke="#000" stroke-linecap="round" stroke-linejoin="round" stroke-miterlimit="0" stroke-width="1.25" d="m 354.99997,1317.8623 a 7.4999604,7.4998641 0 0 1 6.49516,3.75 7.4999604,7.4998641 0 0 1 0,7.4998 l -6.49516,-3.7499 z" color="#000" overflow="visible" style="isolation:auto;mix-blend-mode:normal"/><path fill="none" stroke="#000" stroke-linecap="round" stroke-linejoin="round" stroke-miterlimit="0" stroke-width="1.25" style="isolation:auto;mix-blend-mode:normal" d="m 352.08063,1318.4516 c 0.44865,-0.1896 0.9196,-0.337 1.40783,-0.437 0.48823,-0.1 0.99375,-0.1523 1.51152,-0.1523 4.14214,0 7.5,3.3578 7.49996,7.5 -4e-5,4.142 -3.35787,7.4998 -7.49996,7.4998 -4.1421,0 -7.49992,-3.3578 -7.49997,-7.4998 0,-0.5178 0.0525,-1.0233 0.15236,-1.5116 0.0999,-0.4881 0.24725,-0.9591 0.43701,-1.4077 0.0949,-0.2243 0.20036,-0.4431 0.31581,-0.6556 m 1.29148,-1.7284 c 0.16966,-0.1696 0.3474,-0.3312 0.53261,-0.484" color="#000" overflow="visible"/></g><path fill="none" stroke="#000" stroke-linecap="round" stroke-linejoin="round" d="m -426.36692,1474.0773 c 0.49719,0 1.8944,-1.3006 2.01281,-1.7425 1.40987,2.4419 4.82144,0.025 5.97614,2.0246"/><g transform="translate(-56.294 158)"><path fill="#f8e71b" fill-rule="evenodd" d="m -364.0853,1321.7396 0,1.5851 c 0,0.6783 0.3596,1.3057 0.94482,1.6485 l 3.33251,1.9523 c 0.18958,0.1111 0.49548,0.2957 0.66118,0.4397 0.66018,0.5737 1.05944,1.4595 1.07102,2.4119 2.9e-4,0.024 2.6e-4,0.062 2.6e-4,0.085 l 0,4 -16,0 0,-3.5048 c 0,-0.249 -0.003,-0.6535 0.0277,-0.9005 0.0925,-0.7463 0.41288,-1.4312 0.90129,-1.9388 0.2617,-0.272 0.79191,-0.5897 1.11829,-0.781 l 2.61121,-1.5301 c 0.83232,-0.4877 1.3437,-1.3801 1.3437,-2.3448 l 0,-1.1227 z"/><path fill="#01d1ff" fill-rule="evenodd" d="m -370,1325.5478 -2.02734,1.1894 c -0.32638,0.1913 -0.85744,0.5093 -1.11914,0.7813 -0.48841,0.5076 -0.80789,1.1912 -0.9004,1.9375 -0.0307,0.247 -0.0293,0.6513 -0.0293,0.9003 l 0,3.5059 16,0 0,-4 c 0,-0.023 2.9e-4,-0.062 0,-0.086 -0.0116,-0.9524 -0.41013,-1.8364 -1.07031,-2.4101 -0.1657,-0.144 -0.47253,-0.3304 -0.66211,-0.4415 l -2.1914,-1.2832 0,0.2207 0,0.5 -0.0332,0 c -0.15509,1.2318 -0.87513,2.3346 -1.9668,2.9648 -1.2376,0.7146 -2.7624,0.7146 -4,0 -1.09167,-0.6302 -1.81171,-1.733 -1.9668,-2.9648 l -0.0332,0 0,-0.5 0,-0.3144 z"/><path fill="#00a5ff" fill-rule="evenodd" d="m -370,1325.5478 -2.02734,1.1894 c -0.32638,0.1913 -0.85744,0.5093 -1.11914,0.7813 -0.48841,0.5076 -0.80788,1.1912 -0.9004,1.9375 -0.0307,0.247 -0.0293,0.6513 -0.0293,0.9003 l 0,3.5059 2.57617,0 0,-3.5059 c 0,-0.249 -0.001,-0.6533 0.0293,-0.9003 0.0925,-0.7463 0.41198,-1.4299 0.90039,-1.9375 0.17598,-0.1829 0.46089,-0.373 0.73633,-0.545 -0.0578,-0.1997 -0.10653,-0.4025 -0.13282,-0.6113 l -0.0332,0 0,-0.5 0,-0.3144 z m 8,0.094 0,0.2207 0,0.5 -0.0332,0 c -0.15509,1.2318 -0.87513,2.3345 -1.9668,2.9648 -0.22786,0.1316 -0.4672,0.2313 -0.71094,0.3145 1.07969,0.3676 2.27791,0.2682 3.28711,-0.3145 0.88185,-0.5091 1.51561,-1.3287 1.81055,-2.2734 -0.0695,-0.043 -0.13956,-0.096 -0.19531,-0.1289 L -362,1325.6415 Z"/><path fill="#fff" fill-rule="evenodd" d="m -370,1325.5478 -2.02734,1.1894 c -0.32638,0.1913 -0.85744,0.5093 -1.11914,0.7813 -0.48841,0.5076 -0.80788,1.1912 -0.9004,1.9375 -0.0307,0.247 -0.0293,0.6513 -0.0293,0.9003 l 0,3.5059 1.57617,0 0,-3.5059 c 0,-0.249 -0.001,-0.6533 0.0293,-0.9003 0.0925,-0.7463 0.41198,-1.4299 0.90039,-1.9375 0.2617,-0.272 0.79276,-0.59 1.11914,-0.7813 l 0.5,-0.293 c -0.004,-0.028 -0.0121,-0.054 -0.0156,-0.082 l -0.0332,0 0,-0.5 0,-0.3144 z m 8,0.094 0,0.2207 0,0.5 -0.0332,0 c -0.15509,1.2318 -0.87513,2.3345 -1.9668,2.9648 -0.38173,0.2204 -0.79142,0.3648 -1.21094,0.4492 0.94005,0.1888 1.93181,0.045 2.78711,-0.4492 1.04242,-0.6018 1.73916,-1.6363 1.93555,-2.8008 L -362,1325.6415 Z"/><path fill="#fff" fill-rule="evenodd" d="m -368.07422,1321.7392 0,1.123 c 0,0.9647 -0.51143,1.856 -1.34375,2.3438 l -2.60937,1.5312 c -0.32638,0.1913 -0.85744,0.5093 -1.11914,0.7813 -0.48841,0.5076 -0.8079,1.1912 -0.9004,1.9375 -0.0307,0.247 -0.0293,0.6513 -0.0293,0.9003 l 0,3.5059 1.57617,0 0,-3.5059 c 0,-0.249 -0.003,-0.6533 0.0273,-0.9003 0.0925,-0.7463 0.41394,-1.4299 0.90235,-1.9375 0.2617,-0.272 0.7908,-0.59 1.11719,-0.7813 l 2.61132,-1.5312 c 0.83232,-0.4878 1.34375,-1.3791 1.34375,-2.3438 l 0,-1.123 -1.57617,0 z"/><path fill="#fd5b6a" d="m -366,1310.8622 c -2.76971,0 -5,2.23 -5,5 l 0,10.2715 1.58203,-0.9277 c 0.83232,-0.4878 1.34375,-1.3791 1.34375,-2.3438 l 0,-1.123 0.0762,0 c -0.61082,-0.7618 -1.00198,-1.8048 -1.00198,-2.8106 l 0,-2.2598 c 0,-0.01 -4e-5,-0.01 0,-0.021 l 0,-0.022 0,-1.1054 0.0254,-0.2832 c 1.01932,0 2.83859,0.2471 3.54492,-0.3672 0.11314,-0.098 0.24898,-0.1485 0.38477,-0.1484 0.13579,0 0.27164,0.05 0.38476,0.1484 0.45651,0.3974 1.04615,0.6081 1.6543,0.7676 l 0.004,0.9882 c 0,0.01 -0.002,0.01 -0.002,0.022 0,0.01 0.002,0.01 0.002,0.021 l 0,2.2598 c 0,1.0491 -0.42631,2.1366 -1.08399,2.9043 l 0,1.4922 c 0,0.6783 0.36009,1.3056 0.94532,1.6484 l 2.10546,1.2325 0.0332,0 0,-10.3438 c 0,-1.8698 -1.01505,-3.4937 -2.52735,-4.3516 -0.10689,-0.061 -0.21646,-0.1169 -0.32812,-0.1699 -0.0985,-0.046 -0.19887,-0.091 -0.30078,-0.1308 -0.56976,-0.2247 -1.1905,-0.3477 -1.84189,-0.3477 z"/><path fill="#fe2b70" d="m -366,1310.8622 c -2.76971,0 -5,2.23 -5,5 l 0,10.2715 1.58203,-0.9277 c 0.15506,-0.091 0.28642,-0.2075 0.41797,-0.3243 l 0,-5.9531 0,-2.2598 c 0,-0.01 -4e-5,-0.01 0,-0.021 l 0,-0.022 0,-0.7636 0,-0.3418 0.0254,-0.2832 c 0.005,0 0.0128,0 0.0176,0 0.26524,-2.1372 1.865,-3.8495 3.94726,-4.2735 -0.32044,-0.064 -0.65024,-0.1015 -0.99026,-0.1015 z m 2.95508,3.8594 c -0.13579,0 -0.27163,0.05 -0.38477,0.1484 -0.18489,0.1608 -0.44884,0.2596 -0.75195,0.3223 0.3605,0.1985 0.76206,0.3368 1.17578,0.4453 l 0.004,0.9883 c 0,0.01 -0.002,0.011 -0.002,0.022 0,0.01 0.002,0.01 0.002,0.021 l 0,2.2597 c 0,1.0491 -0.42631,2.1366 -1.08399,2.9043 l 0,1.4922 c 0,0.6783 0.36008,1.3057 0.94532,1.6485 l 2.10546,1.2324 0.0332,0 0,-1.1504 -0.13867,-0.082 c -0.58523,-0.3428 -0.94532,-0.9701 -0.94532,-1.6484 l 0,-1.4922 c 0.65768,-0.7677 1.08399,-1.8552 1.08399,-2.9043 l 0,-2.2598 c 0,-0.011 -0.002,-0.011 -0.002,-0.021 0,-0.011 0.002,-0.012 0.002,-0.022 l -0.004,-0.8105 c -5.7e-4,-0.061 -0.009,-0.1208 -0.0117,-0.1817 -0.60387,-0.1591 -1.18909,-0.3689 -1.64258,-0.7637 -0.11312,-0.098 -0.24897,-0.1484 -0.38476,-0.1484 z m -3.92969,0.5156 -0.004,0.041 c 0.15127,0 0.29832,-0.014 0.44141,-0.029 -0.1364,-0.01 -0.31956,-0.012 -0.4375,-0.012 z"/><path fill="#fff" d="m -366,1310.8622 c -2.76971,0 -5,2.23 -5,5 l 0,10.2715 1,-0.5859 0,-9.6856 c 0,-2.5676 1.91835,-4.6673 4.4043,-4.9609 -0.1355,-0.011 -0.26583,-0.039 -0.4043,-0.039 z m 1.95508,3.8594 c -0.13579,0 -0.27163,0.05 -0.38477,0.1484 -0.0353,0.031 -0.0844,0.05 -0.125,0.076 0.44088,0.3445 0.98448,0.5434 1.54883,0.6914 l 0.004,0.9883 c 0,0.01 -0.002,0.011 -0.002,0.022 0,0.01 0.002,0.01 0.002,0.021 l 0,2.2598 c 0,1.049 -0.42631,2.1366 -1.08399,2.9043 l 0,1.4922 c 0,0.6783 0.36008,1.3056 0.94532,1.6484 l 2.10546,1.2324 0.0332,0 0,-0.5664 -1.13867,-0.666 c -0.58523,-0.3428 -0.94532,-0.9701 -0.94532,-1.6485 l 0,-1.4921 c 0.65768,-0.7677 1.08399,-1.8552 1.08399,-2.9043 l 0,-2.2598 c 0,-0.011 -0.002,-0.011 -0.002,-0.021 0,-0.011 0.002,-0.012 0.002,-0.022 l -0.004,-0.9883 c -0.60815,-0.1595 -1.19779,-0.3702 -1.6543,-0.7676 -0.11312,-0.098 -0.24897,-0.1484 -0.38476,-0.1484 z m -3.92969,0.5156 -0.002,0.025 c 0.41179,0.017 0.79057,0.031 1.20117,0 -0.42317,-0.014 -0.87595,-0.029 -1.19922,-0.029 z"/><path fill="none" stroke="#000" d="M-364.0853 1321.7396l0 1.5851c0 .6783.3596 1.3057.94482 1.6485l3.33251 1.9523c.18958.1111.49548.2957.66118.4397.66018.5737 1.05944 1.4595 1.07102 2.4119.00029.024.00026.062.00026.085l0 4-16 0 0-3.5048c0-.249-.003-.6535.0277-.9005.0925-.7463.41288-1.4312.90129-1.9388.2617-.272.79191-.5897 1.11829-.781l2.61121-1.5301c.83232-.4877 1.3437-1.3801 1.3437-2.3448l0-1.1227zM-371.57551 1333.8623l0-2M-360.57551 1333.8623l0-2"/><path fill="none" stroke="#000" d="m -371.00034,1326.206 0,-10.3437 c 0,-2.77 2.22977,-5 4.99948,-5 0.65139,0 1.27291,0.1233 1.84258,0.348 0.10191,0.04 0.20216,0.084 0.30063,0.1302 0.11166,0.053 0.22103,0.1096 0.32792,0.1703 1.5123,0.8579 2.52834,2.4817 2.52834,4.3515 l 0,10.3437"/><path fill="#f8e71b" d="m -364.66068,1314.8701 c -0.22625,-0.1969 -0.54316,-0.1969 -0.76943,0 -0.70633,0.6143 -2.52473,0.3672 -3.54405,0.3672 l -0.0262,0.2833 0,1.106 c 0,0.011 10e-4,0.014 10e-4,0.021 -4e-5,0.011 -10e-4,0.015 -10e-4,0.021 l 0,2.2602 c 0,1.879 1.33794,3.9227 2.99915,3.9227 1.66121,0 2.99915,-2.0436 2.99915,-3.9227 l 0,-2.2602 c 0,-0.011 -0.001,-0.015 -0.001,-0.021 7e-5,-0.011 0.001,-0.014 0.001,-0.021 l -0.004,-0.9898 c -0.60815,-0.1595 -1.1981,-0.3693 -1.65461,-0.7667 z"/><path fill="#fff" d="m -365.04492,1314.7216 c -0.13579,0 -0.27163,0.05 -0.38477,0.1484 -0.2698,0.2347 -0.7036,0.3436 -1.1914,0.3887 0.78949,0.034 1.64875,0.063 2.27148,-0.1641 -0.10777,-0.069 -0.21369,-0.1403 -0.31055,-0.2246 -0.11312,-0.098 -0.24897,-0.1484 -0.38476,-0.1484 z m -3.92969,0.5156 -0.0254,0.2832 0,1.1055 c 0,0.011 0,0.014 0,0.022 -4e-5,0.011 0,0.015 0,0.021 l 0,2.2597 c 0,1.879 1.33684,3.9239 2.99805,3.9239 0.26103,0 0.51082,-0.066 0.75195,-0.1582 -1.29365,-0.4952 -2.24805,-2.1817 -2.24805,-3.7657 l 0,-2.2597 c 0,-0.01 -4e-5,-0.01 0,-0.021 0,-0.01 0,-0.011 0,-0.022 l 0,-1.1055 0.0215,-0.2461 c -0.53584,-0.01 -1.09422,-0.037 -1.49805,-0.037 z"/><path fill="none" stroke="#000" stroke-linecap="round" stroke-linejoin="round" d="M-364.66068 1314.8701c-.22625-.1969-.54316-.1969-.76943 0-.70633.6143-2.52473.3672-3.54405.3672l-.0262.2833 0 1.106c0 .011.001.014.001.021-.00004.011-.001.015-.001.021l0 2.2602c0 1.879 1.33794 3.9227 2.99915 3.9227 1.66121 0 2.99915-2.0436 2.99915-3.9227l0-2.2602c0-.011-.001-.015-.001-.021.00007-.011.001-.014.001-.021l-.004-.9898c-.60815-.1595-1.1981-.3693-1.65461-.7667zM-362.00034 1325.8621a3.999999 3.999999 0 0 1-2.0456 3.49 3.999999 3.999999 0 0 1-4.04457-.08 3.999999 3.999999 0 0 1-1.90673-3.5678"/></g><path fill="none" stroke="#4bbfeb" d="m -419.875,1465.8622 5,0"/><path fill="none" stroke="#000" d="M-417.06699 1483.8622l9.19199 0M-414.48163 1486.8622l6.60663 0"/></g></svg>